<svg width="137" height="28" viewBox="0 0 137 28" fill="none" xmlns="http://www.w3.org/2000/svg">
<g clip-path="url(#clip0_2_2)">
<path d="M62.2272 9.82855V9.8636C62.218 12.4647 61.1847 14.9563 59.3534 16.7935C57.5222 18.6307 55.0418 19.6641 52.4549 19.6676C50.6338 19.6685 48.8415 19.2114 47.2411 18.338C47.0584 18.2389 46.8804 18.1337 46.6941 18.0237C46.4524 17.877 46.2432 17.682 46.0793 17.4507C45.9155 17.2195 45.8006 16.957 45.7417 16.6793C45.6828 16.4017 45.6811 16.1148 45.7368 15.8365C45.7924 15.5582 45.9043 15.2943 46.0654 15.0611L50.2597 8.99574C50.4872 8.66667 50.8354 8.44194 51.2277 8.37099C51.6199 8.30004 52.0242 8.38868 52.3515 8.61741C52.6787 8.84614 52.9023 9.19622 52.9728 9.59065C53.0434 9.98507 52.9552 10.3915 52.7277 10.7206L49.1369 15.9121C50.1776 16.3926 51.3097 16.6401 52.4549 16.6373C54.2462 16.6351 55.9637 15.9197 57.2318 14.6476C58.5 13.3755 59.2154 11.6502 59.2218 9.8491V9.8213C59.2246 8.05761 58.5452 6.36195 57.3272 5.09276C56.1199 3.82426 54.4637 3.08586 52.7181 3.03793C48.0369 2.90013 45.7324 6.48884 43.0648 10.6457L43.0504 10.6686C40.3407 14.8895 37.28 19.6627 31.1382 19.6627C31.018 19.6627 30.8978 19.6627 30.7848 19.6627C28.2517 19.5912 25.8487 18.5185 24.0972 16.6772C22.3378 14.8464 21.3568 12.3985 21.3623 9.85273V9.82009C21.3718 7.21899 22.4051 4.72745 24.2363 2.89011C26.0675 1.05276 28.5476 0.0190423 31.1346 0.0149068C32.9555 0.0145082 34.7477 0.471547 36.3483 1.34451C36.5323 1.44362 36.7162 1.54878 36.8953 1.65877C37.1372 1.8054 37.3465 2.00033 37.5104 2.23152C37.6744 2.4627 37.7894 2.72524 37.8484 3.00289C37.9075 3.28055 37.9093 3.56743 37.8537 3.8458C37.7981 4.12418 37.6863 4.38813 37.5253 4.62136L33.3297 10.6867C33.2191 10.8544 33.0763 10.9981 32.9097 11.1095C32.743 11.2209 32.556 11.2977 32.3594 11.3354C32.1629 11.3732 31.9608 11.3711 31.7651 11.3292C31.5694 11.2874 31.384 11.2067 31.2197 11.0918C31.0554 10.9769 30.9156 10.8302 30.8085 10.6603C30.7013 10.4904 30.629 10.3007 30.5958 10.1023C30.5626 9.9039 30.5691 9.70083 30.6149 9.505C30.6608 9.30917 30.7451 9.12453 30.8629 8.9619L34.4538 3.77042C33.4127 3.28976 32.2802 3.0423 31.1346 3.04518C29.3434 3.04836 27.6262 3.76423 26.3582 5.03639C25.0903 6.30855 24.3746 8.03358 24.3677 9.8346V9.86119C24.3663 11.6208 25.0452 13.312 26.261 14.5776C27.4681 15.8465 29.1245 16.5849 30.8701 16.6325H31.1286C35.6367 16.6325 37.9039 13.0994 40.5234 9.0175L40.5367 8.99453C43.3016 4.69268 46.4272 -0.182116 52.7987 0.00523678C55.3316 0.075895 57.7345 1.1488 59.4851 2.99079C61.2503 4.82373 62.2342 7.27712 62.2272 9.82855V9.82855Z" fill="#706CFF"/>
<path d="M9.77113 0.0180673C7.19781 0.0210778 4.7293 1.04339 2.90038 2.86353C1.07145 4.68367 0.0294058 7.15506 0 9.74227C0 9.77491 0 9.80875 0 9.84259V26.4892C0 26.8899 0.158319 27.2742 0.440129 27.5575C0.721939 27.8409 1.10416 28.0001 1.5027 28.0001C1.90124 28.0001 2.28345 27.8409 2.56526 27.5575C2.84707 27.2742 3.00539 26.8899 3.00539 26.4892V16.9233C4.15783 18.0379 5.56471 18.851 7.10257 19.2914C8.64043 19.7318 10.2623 19.7859 11.8258 19.4492C13.3894 19.1124 14.8468 18.3949 16.0703 17.3597C17.2938 16.3246 18.2459 15.0033 18.8431 13.5119C19.4403 12.0205 19.6643 10.4045 19.4956 8.8057C19.3268 7.20692 18.7704 5.67422 17.8751 4.34207C16.9799 3.00992 15.7732 1.91904 14.3608 1.16514C12.9485 0.411242 11.3738 0.0173641 9.77474 0.0180673H9.77113ZM9.77113 16.6477C8.43281 16.6475 7.12461 16.2482 6.01195 15.5005C4.89929 14.7527 4.03214 13.69 3.52015 12.4467C3.00816 11.2034 2.87432 9.83543 3.13556 8.51568C3.3968 7.19593 4.04139 5.9837 4.98781 5.03228C5.93423 4.08085 7.13998 3.43296 8.45261 3.17053C9.76523 2.9081 11.1258 3.04291 12.3622 3.55792C13.5986 4.07293 14.6554 4.945 15.3989 6.06387C16.1424 7.18275 16.5393 8.49817 16.5393 9.8438C16.5374 11.6479 15.8236 13.3776 14.5547 14.6532C13.2859 15.9288 11.5655 16.6461 9.77113 16.6477V16.6477Z" fill="#706CFF"/>
<path d="M73.8207 0.0179928C72.2214 0.0168145 70.6463 0.410322 69.2335 1.16399C67.8207 1.91765 66.6135 3.00844 65.7177 4.34062C64.822 5.67281 64.2652 7.20568 64.096 8.80472C63.9269 10.4038 64.1507 12.0201 64.7478 13.5119C65.3448 15.0037 66.2969 16.3253 67.5205 17.3609C68.744 18.3964 70.2017 19.1142 71.7654 19.4512C73.3292 19.7883 74.9514 19.7342 76.4896 19.2939C78.0278 18.8535 79.435 18.0403 80.5877 16.9257V26.4891C80.5877 26.8898 80.746 27.2741 81.0278 27.5575C81.3096 27.8408 81.6918 28 82.0904 28C82.4889 28 82.8711 27.8408 83.1529 27.5575C83.4347 27.2741 83.5931 26.8898 83.5931 26.4891V9.84131C83.5893 7.23677 82.5584 4.74003 80.7265 2.89856C78.8945 1.05709 76.4111 0.02119 73.8207 0.0179928V0.0179928ZM73.8207 16.6476C72.4824 16.6476 71.1741 16.2486 70.0613 15.5011C68.9486 14.7535 68.0812 13.6909 67.569 12.4478C67.0568 11.2046 66.9227 9.83659 67.1837 8.51679C67.4447 7.19699 68.0891 5.98465 69.0354 5.03306C69.9816 4.08146 71.1873 3.43336 72.4998 3.17069C73.8124 2.90802 75.173 3.04259 76.4095 3.55738C77.646 4.07217 78.703 4.94405 79.4467 6.06279C80.1904 7.18153 80.5874 8.49688 80.5877 9.84252V9.84252C80.5861 11.6467 79.8727 13.3764 78.604 14.6523C77.3353 15.9281 75.6151 16.6457 73.8207 16.6476V16.6476Z" fill="#706CFF"/>
</g>
<defs>
<clipPath id="clip0_2_2">
<rect width="137" height="28" fill="white"/>
</clipPath>
</defs>
</svg>
